<svg height="491pt" viewBox="-21 0 491 491.16754" width="491pt" xmlns="http://www.w3.org/2000/svg"><path d="m409.546875 241.128906c26.570313-100.9375-33.714844-204.308594-134.652344-230.878906-100.9375-26.574219-204.304687 33.710938-230.875 134.648438-26.574219 100.9375 33.710938 204.308593 134.648438 230.878906 100.9375 26.570312 204.304687-33.710938 230.878906-134.648438zm-221.242187-58.246094c5.585937-21.214843 27.390624-33.929687 48.605468-28.347656 21.214844 5.585938 33.929688 27.390625 28.347656 48.605469-5.585937 21.21875-27.390624 33.933594-48.605468 28.347656-21.214844-5.582031-33.933594-27.390625-28.347656-48.605469zm0 0" fill="#4671c6"/><path d="m409.546875 241.128906c26.570313-100.9375-33.714844-204.308594-134.652344-230.878906-100.9375-26.574219-204.304687 33.710938-230.875 134.648438-26.574219 100.9375 33.710938 204.308593 134.648438 230.878906 100.9375 26.570312 204.304687-33.710938 230.878906-134.648438zm-221.242187-58.246094c5.585937-21.214843 27.390624-33.929687 48.605468-28.347656 21.214844 5.585938 33.929688 27.390625 28.347656 48.605469-5.585937 21.21875-27.390624 33.933594-48.605468 28.347656-21.214844-5.582031-33.933594-27.390625-28.347656-48.605469zm0 0" fill="#4671c6"/><g fill="#a4c9ff"><path d="m226.429688 153.265625v-.035156c-11.695313.109375-22.710938 5.410156-30.117188 14.210937l.027344.023438c7.410156-8.796875 18.394531-14.089844 30.089844-14.199219zm0 0"/><path d="m226.078125 113.453125-.96875-109.457031c-55.632813.460937-107.9375 25.644531-143.117187 67.5l83.847656 70.375c14.820312-17.605469 36.84375-28.203125 60.238281-28.417969zm0 0"/><path d="m257.453125 218.289062.023437.019532c2.652344-3.210938 4.832032-6.875 6.394532-10.914063-1.570313 4.035157-3.761719 7.683594-6.417969 10.894531zm0 0"/><path d="m264.648438 205.222656c.21875-.683594.425781-1.378906.609374-2.078125-.183593.699219-.390624 1.394531-.609374 2.078125zm0 0"/><path d="m265.257812 203.144531c.1875-.703125.347657-1.40625.492188-2.109375-.144531.703125-.304688 1.40625-.492188 2.109375zm0 0"/><path d="m265.808594 200.714844c.121094-.621094.230468-1.242188.324218-1.859375-.089843.617187-.203124 1.238281-.324218 1.859375zm0 0"/><path d="m263.90625 207.308594c.226562-.585938.433594-1.179688.636719-1.78125-.203125.601562-.410157 1.195312-.636719 1.78125zm0 0"/><path d="m303.734375 213.273438c-3.027344 11.492187-8.445313 21.722656-15.566406 30.332031l84.484375 69.625c16.875-20.449219 29.699218-44.78125 36.890625-72.101563 7.191406-27.320312 8.011719-54.816406 3.394531-80.921875l-107.8125 19c1.953125 11 1.636719 22.574219-1.390625 34.066407zm0 0"/><path d="m265.953125 186.109375-.03125.007813c.730469 4.101562.84375 8.355468.226563 12.640624.628906-4.285156.535156-8.546874-.195313-12.648437zm0 0"/></g><path d="m226.742188 386.027344c-16.21875 0-32.6875-2.058594-49.09375-6.378906-102.910157-27.09375-164.589844-132.859376-137.5-235.765626 27.09375-102.910156 132.859374-164.589843 235.765624-137.503906 102.910157 27.09375 164.589844 132.855469 137.5 235.765625-22.773437 86.503907-101.144531 143.882813-186.671874 143.882813zm-47.054688-14.117188c98.644531 25.972656 200.023438-33.160156 225.992188-131.796875 25.964843-98.644531-33.15625-200.027343-131.800782-225.992187-98.648437-25.972656-200.023437 33.15625-225.992187 131.796875s33.15625 200.023437 131.800781 225.992187zm0 0" fill="#3762cc"/><path d="m68.222656 151.273438c23.015625-87.433594 112.867188-139.835938 200.300782-116.820313 87.429687 23.015625 139.832031 112.871094 116.816406 200.300781-23.015625 87.429688-112.871094 139.832032-200.300782 116.816406-87.429687-23.019531-139.832031-112.867187-116.816406-200.296874zm310.203125 81.660156c22.011719-83.613282-28.105469-169.550782-111.722656-191.5625-83.617187-22.011719-169.554687 28.105468-191.566406 111.71875-22.011719 83.617187 28.105469 169.554687 111.722656 191.566406s169.550781-28.105469 191.566406-111.722656zm0 0" fill="#3762cc"/><path d="m95.886719 158.554688c19-72.175782 93.175781-115.4375 165.355469-96.4375 72.175781 19.003906 115.4375 93.179687 96.4375 165.355468-19 72.175782-93.179688 115.4375-165.355469 96.4375-72.179688-19.003906-115.441407-93.179687-96.4375-165.355468zm254.875 67.097656c18-68.363282-22.976563-138.621094-91.34375-156.621094-68.363281-17.996094-138.621094 22.980469-156.617188 91.34375-17.996093 68.363281 22.980469 138.621094 91.34375 156.617188 68.363281 17.996093 138.621094-22.976563 156.617188-91.339844zm0 0" fill="#3762cc"/><path d="m123.546875 165.835938c14.988281-56.921876 73.488281-91.039063 130.410156-76.054688 56.925781 14.984375 91.042969 73.484375 76.058594 130.410156-14.988281 56.925782-73.488281 91.042969-130.410156 76.054688-56.921875-14.984375-91.042969-73.488282-76.058594-130.410156zm199.554687 52.535156c13.980469-53.113282-17.855468-107.695313-70.964843-121.675782-53.109375-13.980468-107.691407 17.851563-121.671875 70.960938-13.984375 53.109375 17.851562 107.691406 70.957031 121.671875 53.113281 13.984375 107.695313-17.847656 121.679687-70.957031zm0 0" fill="#3762cc"/><path d="m303.734375 213.273438c11.167969-42.433594-14.261719-86.042969-56.695313-97.214844-42.429687-11.167969-86.039062 14.265625-97.210937 56.695312-11.171875 42.433594 14.261719 86.042969 56.695313 97.214844 42.429687 11.167969 86.039062-14.265625 97.210937-56.695312zm-115.429687-30.390626c5.585937-21.214843 27.390624-33.929687 48.605468-28.347656 21.214844 5.585938 33.929688 27.390625 28.347656 48.605469-5.585937 21.21875-27.390624 33.933594-48.605468 28.347656-21.214844-5.582031-33.933594-27.390625-28.347656-48.605469zm0 0" fill="#f9a7a7"/><path d="m226.859375 276.613281c-7.125 0-14.289063-.917969-21.355469-2.78125-44.5625-11.730469-71.277344-57.53125-59.542968-102.097656 11.734374-44.566406 57.535156-71.265625 102.097656-59.542969 44.566406 11.730469 71.277344 57.535156 59.546875 102.097656-5.675781 21.554688-19.433594 39.625-38.738281 50.882813-12.976563 7.570313-27.402344 11.441406-42.007813 11.441406zm-.0625-159.183593c-33.492187 0-64.183594 22.46875-73.101563 56.34375-10.609374 40.300781 13.542969 81.714843 53.84375 92.324218 19.496094 5.132813 39.84375 2.351563 57.292969-7.832031 17.460938-10.183594 29.902344-26.523437 35.03125-46.011719 10.613281-40.296875-13.542969-81.714844-53.839843-92.328125-6.421876-1.6875-12.875-2.496093-19.226563-2.496093zm.027344 119.382812c-3.734375 0-7.488281-.480469-11.191407-1.453125-11.292968-2.972656-20.761718-10.183594-26.660156-20.296875-5.898437-10.113281-7.511718-21.902344-4.539062-33.195312h.003906c6.140625-23.351563 30.140625-37.34375 53.488281-31.203126 11.292969 2.976563 20.765625 10.183594 26.660157 20.296876 5.898437 10.113281 7.511718 21.90625 4.539062 33.199218-2.972656 11.292969-10.179688 20.761719-20.292969 26.660156-6.796875 3.964844-14.355469 5.992188-22.007812 5.992188zm-34.652344-52.910156c-2.429687 9.226562-1.113281 18.863281 3.710937 27.132812 4.820313 8.265625 12.558594 14.15625 21.785157 16.585938 9.226562 2.429687 18.867187 1.113281 27.132812-3.710938 8.265625-4.820312 14.160157-12.554687 16.585938-21.785156 2.429687-9.226562 1.113281-18.867188-3.707031-27.132812-4.820313-8.265626-12.558594-14.160157-21.789063-16.585938-19.074219-5.023438-38.691406 6.414062-43.71875 25.496094zm0 0" fill="#3762cc"/><path d="m353.292969 297.277344c15.160156-18.332032 25.945312-39.355469 32.046875-62.523438 6.09375-23.148437 7.070312-46.769531 2.90625-70.199218l-7.042969 1.25c3.984375 22.40625 3.046875 44.992187-2.78125 67.128906-5.832031 22.160156-16.148437 42.265625-30.644531 59.792968zm0 0" fill="#e0ebfc"/><path d="m106.6875 92.222656c29.625-35.207031 72.792969-55.609375 118.707031-56.03125l-.066406-7.148437c-48.011719.4375-93.144531 21.773437-124.121094 58.582031zm0 0" fill="#e0ebfc"/><path d="m325.714844 274.542969c11.855468-14.339844 20.28125-30.789063 25.046875-48.890625 4.765625-18.097656 5.53125-36.566406 2.273437-54.882813l7.042969-1.253906c3.441406 19.347656 2.632813 38.847656-2.398437 57.957031-5.03125 19.113282-13.929688 36.480469-26.449219 51.625zm0 0" fill="#e0ebfc"/><path d="m224.335938 64.816406 1.308593-.070312-.0625-7.050782-1.382812-.027343c-39.15625.761719-76.085938 18.476562-101.316407 48.601562l5.484376 4.59375c23.902343-28.542969 58.878906-45.324219 95.96875-46.046875zm0 0" fill="#e0ebfc"/><path d="m144.9375 124.488281c20.164062-24.011719 49.648438-37.945312 80.894531-38.234375l.066407 7.152344c-29.152344.265625-56.667969 13.269531-75.488282 35.679688zm0 0" fill="#e0ebfc"/><path d="m303.640625 256.347656c9.210937-11.136718 15.753906-23.914062 19.457031-37.976562s4.296875-28.40625 1.765625-42.636719l7.042969-1.25c2.710938 15.257813 2.074219 30.636719-1.890625 45.707031-3.96875 15.070313-10.988281 28.769532-20.863281 40.714844zm0 0" fill="#e0ebfc"/><path d="m226.355469 481.007812h-218.289063c-2.199218 0-3.984375-1.78125-3.984375-3.980468v-211.167969c0-7.703125 6.246094-13.949219 13.949219-13.949219h208.328125v229.097656zm0 0" fill="#4671c6"/><path d="m226.355469 485.007812h-218.289063c-4.402344 0-7.9843748-3.582031-7.9843748-7.980468v-211.167969c0-9.894531 8.0507808-17.949219 17.9492188-17.949219h208.324219c2.207031 0 4 1.792969 4 4v229.097656c0 2.210938-1.792969 4-4 4zm-208.324219-229.097656c-5.484375 0-9.949219 4.464844-9.949219 9.949219v211.167969l214.273438-.019532v-221.097656zm0 0" fill="#3762cc"/><path d="m226.355469 481.007812h215.417969c2.1875 0 3.957031-1.769531 3.957031-3.957031v-211.285156c0-7.648437-6.203125-13.855469-13.855469-13.855469h-205.519531zm0 0" fill="#4671c6"/><path d="m441.773438 485.007812h-215.417969c-2.207031 0-4-1.789062-4-4v-229.097656c0-2.207031 1.792969-4 4-4h205.523437c9.84375 0 17.855469 8.011719 17.855469 17.855469v211.285156c-.003906 4.390625-3.574219 7.957031-7.960937 7.957031zm-211.417969-8h211.417969l-.042969-211.242187c0-5.433594-4.421875-9.855469-9.855469-9.855469h-201.519531zm0 0" fill="#3762cc"/><path d="m435.34375 268.90625-2.128906-.972656c-3.203125-1.457032-79.132813-35.769532-138.105469-35.769532-29.148437 0-49.695313 8.664063-61.070313 25.757813-3.527343 5.296875-6.15625 11.34375-7.898437 18.074219-1.746094-6.730469-4.371094-12.777344-7.898437-18.074219-11.378907-17.09375-31.925782-25.757813-61.074219-25.757813-58.96875 0-134.898438 34.3125-138.101563 35.769532l-2.128906.972656c-1.84375.839844-2.996094 2.5-2.996094 4.316406v180.488282h200.058594c5.953125 0 10.914062 4.207031 12.089844 9.804687h.515625c1.136719-5.59375 6.089843-9.804687 12.023437-9.804687h199.710938v-180.488282c0-1.816406-1.152344-3.476562-2.996094-4.316406zm0 0" fill="#e0ebfc"/><path d="m226.605469 467.515625h-.515625c-1.890625 0-3.527344-1.324219-3.914063-3.179687-.804687-3.839844-4.242187-6.625-8.171875-6.625h-200.0625c-2.210937 0-4-1.792969-4-4v-180.488282c0-3.402344 2.039063-6.449218 5.332032-7.957031l2.132812-.96875c3.238281-1.476563 79.964844-36.132813 139.761719-36.132813 30.570312 0 52.238281 9.265626 64.402343 27.542969 1.714844 2.574219 3.242188 5.335938 4.570313 8.257813 1.328125-2.921875 2.851563-5.683594 4.566406-8.257813 12.164063-18.277343 33.832031-27.542969 64.402344-27.542969 59.796875 0 136.527344 34.65625 139.761719 36.132813l2.128906.96875h.003906c3.292969 1.507813 5.332032 4.550781 5.332032 7.957031v180.488282c0 2.207031-1.789063 4-4 4h-199.710938c-3.914062 0-7.324219 2.777343-8.101562 6.605468-.382813 1.863282-2.019532 3.199219-3.917969 3.199219zm-208.664063-17.804687h196.0625c4.835938 0 9.292969 2.15625 12.324219 5.625 3.019531-3.46875 7.460937-5.625 12.296875-5.625h195.710938v-176.492188c0-.183594-.222657-.476562-.652344-.675781l-2.128906-.96875c-3.171876-1.445313-78.363282-35.410157-136.445313-35.410157-27.726563 0-47.152344 8.066407-57.742187 23.972657-3.242188 4.871093-5.71875 10.542969-7.355469 16.863281-.457031 1.761719-2.050781 2.996094-3.875 2.996094s-3.414063-1.234375-3.871094-2.996094c-1.636719-6.316406-4.113281-11.992188-7.359375-16.863281-10.585938-15.90625-30.015625-23.972657-57.742188-23.972657-58.078124 0-133.269531 33.964844-136.445312 35.410157l-2.128906.972656c-.429688.195313-.652344.488281-.652344.671875v176.492188zm0 0" fill="#3762cc"/><path d="m226.355469 472.097656c-2.207031 0-4-1.792968-4-4v-196.101562c0-2.207032 1.792969-4 4-4s4 1.792968 4 4v196.101562c0 2.207032-1.792969 4-4 4zm0 0" fill="#3762cc"/><path d="m14.800781 459.488281h195.980469c7.589844 0 13.933594 3.675781 15.574219 8.605469-1.109375-11.535156-4.433594-21.453125-9.957031-29.578125-11.273438-16.59375-31.636719-25.007813-60.519532-25.007813-58.441406 0-133.683594 33.3125-136.855468 34.730469l-5.082032 2.269531v9.007813c.285156-.011719.570313-.027344.859375-.027344zm0 0" fill="#f9cfcf"/><path d="m13.941406 491.167969h.859375c-.289062 0-.574219-.015625-.859375-.03125zm0 0" fill="#f9cfcf"/><path d="m437.910156 491.167969h.859375v-.03125c-.285156.015625-.566406.03125-.859375.03125zm0 0" fill="#f9cfcf"/><path d="m241.933594 459.488281h195.976562c.289063 0 .574219.015625.859375.027344v-9.007813l-5.078125-2.269531c-3.171875-1.417969-78.417968-34.730469-136.859375-34.730469-28.882812 0-49.246093 8.414063-60.519531 25.007813-5.523438 8.125-8.847656 18.046875-9.957031 29.582031 1.640625-4.929687 7.984375-8.609375 15.578125-8.609375zm0 0" fill="#f9cfcf"/><path d="m21.265625 457.90625s202.988281-90.679688 198.105469 23.101562h-198.105469zm0 0" fill="#e0ebfc"/><path d="m28.589844 470.847656v-5.4375c17.921875-7.457031 79.605468-31.585937 127.285156-31.585937 24.34375 0 41.585938 6.4375 49.863281 18.625 3.390625 4.984375 5.414063 11.054687 6.117188 18.398437zm0 0" fill="#f9cfcf"/><path d="m69.890625 460.691406c25.675781-8.339844 58.324219-16.707031 85.984375-16.707031 21.953125 0 37.769531 5.480469 44.527344 15.429687.285156.414063.554687.839844.808594 1.277344zm0 0" fill="#e0ebfc"/><path d="m432.296875 457.90625s-202.988281-90.679688-198.101563 23.101562h198.101563zm0 0" fill="#e0ebfc"/><path d="m241.710938 470.847656c.699218-7.34375 2.726562-13.414062 6.113281-18.398437 8.28125-12.1875 25.523437-18.625 49.863281-18.625 47.683594 0 109.367188 24.128906 127.285156 31.585937v5.4375zm0 0" fill="#f9cfcf"/><path d="m252.351562 460.691406c.253907-.433594.523438-.859375.804688-1.273437 6.757812-9.953125 22.574219-15.433594 44.53125-15.433594 27.660156 0 60.304688 8.367187 85.980469 16.707031zm0 0" fill="#e0ebfc"/><path d="m226.355469 472.097656c-1.695313 0-3.242188-1.074218-3.792969-2.738281-.949219-2.847656-5.398438-5.871094-11.78125-5.871094h-195.980469c-.195312 0-.382812.011719-.574219.019531-1.054687.074219-2.207031-.34375-3-1.097656-.792968-.753906-1.289062-1.796875-1.289062-2.894531v-9.007813c0-1.578124.929688-3.007812 2.371094-3.652343l5.078125-2.269531c3.210937-1.433594 79.300781-35.078126 138.488281-35.078126 30.289062 0 51.765625 9.003907 63.828125 26.757813 5.878906 8.652344 9.457031 19.234375 10.632813 31.449219.195312 2.027344-1.164063 3.875-3.152344 4.296875-.277344.058593-.558594.085937-.828125.085937zm-208.414063-16.609375h192.839844c3.472656 0 6.777344.667969 9.660156 1.859375-1.621094-6.214844-4.078125-11.769531-7.355468-16.585937-10.480469-15.429688-29.730469-23.253907-57.207032-23.253907-57.503906 0-132.082031 32.980469-135.230468 34.382813l-2.707032 1.207031zm0 0" fill="#3762cc"/><path d="m226.359375 472.097656c-.277344 0-.554687-.027344-.832031-.085937-1.992188-.421875-3.347656-2.273438-3.152344-4.296875 1.175781-12.21875 4.753906-22.796875 10.628906-31.449219 12.066406-17.753906 33.542969-26.757813 63.832032-26.757813 59.234374 0 135.277343 33.644532 138.484374 35.078126l5.082032 2.269531c1.441406.644531 2.371094 2.074219 2.371094 3.652343v9.007813c0 1.097656-.449219 2.140625-1.242188 2.894531-.792969.757813-1.863281 1.15625-2.953125 1.101563-.285156-.011719-.472656-.023438-.667969-.023438h-195.976562c-6.382813 0-10.835938 3.023438-11.785156 5.875-.550782 1.660157-2.101563 2.734375-3.789063 2.734375zm70.476563-54.589844c-27.476563 0-46.726563 7.824219-57.210938 23.253907-3.273438 4.816406-5.730469 10.371093-7.351562 16.585937 2.878906-1.191406 6.183593-1.859375 9.660156-1.859375h192.839844v-2.386719l-2.710938-1.210937c-3.148438-1.40625-77.679688-34.382813-135.226562-34.382813zm0 0" fill="#3762cc"/><path d="m226.355469 481.007812h215.9375c1.902343 0 3.4375-1.539062 3.4375-3.4375v-13.4375c0-1.902343-1.539063-3.4375-3.4375-3.4375h-205.351563c-5.84375 0-10.585937 4.738282-10.585937 10.585938zm0 0" fill="#4671c6"/><path d="m442.292969 485.007812h-215.9375c-2.210938 0-4-1.789062-4-4v-9.726562c0-8.042969 6.542969-14.585938 14.585937-14.585938h205.351563c4.101562 0 7.4375 3.335938 7.4375 7.4375v13.4375c0 4.101563-3.335938 7.4375-7.4375 7.4375zm-211.9375-8h211.375v-12.3125h-204.785157c-3.632812 0-6.589843 2.953126-6.589843 6.585938zm0 0" fill="#3762cc"/><path d="m226.355469 481.007812h-218.8125c-1.910157 0-3.460938-1.546874-3.460938-3.460937v-13.394531c0-1.910156 1.550781-3.460938 3.460938-3.460938h208.15625c5.882812 0 10.65625 4.773438 10.65625 10.65625zm0 0" fill="#4671c6"/><path d="m226.355469 485.007812h-218.8125c-4.113281 0-7.4609378-3.347656-7.4609378-7.457031v-13.394531c0-4.113281 3.3515628-7.460938 7.4609378-7.460938h208.15625c8.082031 0 14.65625 6.574219 14.65625 14.65625v9.660157c0 2.207031-1.792969 3.996093-4 3.996093zm-218.273438-8h214.273438v-5.660156c0-3.667968-2.984375-6.652344-6.65625-6.652344h-207.617188zm0 0" fill="#3762cc"/><path d="m413.65625 322.636719c-.726562 0-1.464844-.132813-2.1875-.414063-25.949219-10.160156-75.578125-27.199218-116.359375-27.199218-16.246094 0-29.664063 2.828124-39.882813 8.40625-2.910156 1.589843-6.554687.519531-8.140624-2.386719-1.589844-2.910157-.519532-6.554688 2.390624-8.140625 12-6.554688 27.355469-9.878906 45.632813-9.878906 42.753906 0 93.996094 17.558593 120.734375 28.027343 3.085938 1.207031 4.609375 4.6875 3.398438 7.773438-.925782 2.367187-3.1875 3.8125-5.585938 3.8125zm0 0" fill="#f9cfcf"/><path d="m413.65625 346.636719c-.726562 0-1.464844-.132813-2.1875-.414063-25.949219-10.160156-75.578125-27.199218-116.359375-27.199218-16.246094 0-29.664063 2.828124-39.882813 8.40625-2.910156 1.589843-6.554687.519531-8.140624-2.386719-1.589844-2.910157-.519532-6.554688 2.390624-8.140625 12-6.554688 27.355469-9.878906 45.632813-9.878906 42.753906 0 93.996094 17.558593 120.734375 28.027343 3.085938 1.207031 4.609375 4.6875 3.398438 7.773438-.925782 2.367187-3.1875 3.8125-5.585938 3.8125zm0 0" fill="#f9cfcf"/><path d="m413.65625 370.636719c-.726562 0-1.464844-.132813-2.1875-.414063-25.949219-10.160156-75.578125-27.199218-116.359375-27.199218-16.246094 0-29.664063 2.828124-39.882813 8.40625-2.910156 1.589843-6.554687.519531-8.140624-2.386719-1.589844-2.910157-.519532-6.554688 2.390624-8.140625 12-6.554688 27.355469-9.878906 45.632813-9.878906 42.753906 0 93.996094 17.558593 120.734375 28.027343 3.085938 1.207031 4.609375 4.6875 3.398438 7.773438-.925782 2.367187-3.1875 3.8125-5.585938 3.8125zm0 0" fill="#f9cfcf"/><path d="m413.65625 394.636719c-.726562 0-1.464844-.132813-2.1875-.414063-25.949219-10.160156-75.578125-27.199218-116.359375-27.199218-16.246094 0-29.664063 2.828124-39.882813 8.40625-2.910156 1.589843-6.554687.519531-8.140624-2.386719-1.589844-2.910157-.519532-6.554688 2.390624-8.140625 12-6.554688 27.355469-9.878906 45.632813-9.878906 42.753906 0 93.996094 17.558593 120.734375 28.027343 3.085938 1.207031 4.609375 4.6875 3.398438 7.773438-.925782 2.367187-3.1875 3.8125-5.585938 3.8125zm0 0" fill="#f9cfcf"/><path d="m36.355469 322.636719c.722656 0 1.464843-.132813 2.183593-.414063 25.953126-10.160156 75.578126-27.199218 116.359376-27.199218 16.246093 0 29.667968 2.828124 39.886718 8.40625 2.90625 1.589843 6.550782.519531 8.136719-2.386719 1.589844-2.910157.519531-6.554688-2.386719-8.140625-12.003906-6.554688-27.355468-9.878906-45.636718-9.878906-42.75 0-93.992188 17.558593-120.734376 28.027343-3.085937 1.207031-4.605468 4.6875-3.398437 7.773438.925781 2.367187 3.191406 3.8125 5.589844 3.8125zm0 0" fill="#f9cfcf"/><path d="m36.355469 346.636719c.722656 0 1.464843-.132813 2.183593-.414063 25.953126-10.160156 75.578126-27.199218 116.359376-27.199218 16.246093 0 29.667968 2.828124 39.886718 8.40625 2.90625 1.589843 6.550782.519531 8.136719-2.386719 1.589844-2.910157.519531-6.554688-2.386719-8.140625-12.003906-6.554688-27.355468-9.878906-45.636718-9.878906-42.75 0-93.992188 17.558593-120.734376 28.027343-3.085937 1.207031-4.605468 4.6875-3.398437 7.773438.925781 2.367187 3.191406 3.8125 5.589844 3.8125zm0 0" fill="#f9cfcf"/><path d="m36.355469 370.636719c.722656 0 1.464843-.132813 2.183593-.414063 25.953126-10.160156 75.578126-27.199218 116.359376-27.199218 16.246093 0 29.667968 2.828124 39.886718 8.40625 2.90625 1.589843 6.550782.519531 8.136719-2.386719 1.589844-2.910157.519531-6.554688-2.386719-8.140625-12.003906-6.554688-27.355468-9.878906-45.636718-9.878906-42.75 0-93.992188 17.558593-120.734376 28.027343-3.085937 1.207031-4.605468 4.6875-3.398437 7.773438.925781 2.367187 3.191406 3.8125 5.589844 3.8125zm0 0" fill="#f9cfcf"/><path d="m36.355469 394.636719c.722656 0 1.464843-.132813 2.183593-.414063 25.953126-10.160156 75.578126-27.199218 116.359376-27.199218 16.246093 0 29.667968 2.828124 39.886718 8.40625 2.90625 1.589843 6.550782.519531 8.136719-2.386719 1.589844-2.910157.519531-6.554688-2.386719-8.140625-12.003906-6.554688-27.355468-9.878906-45.636718-9.878906-42.75 0-93.992188 17.558593-120.734376 28.027343-3.085937 1.207031-4.605468 4.6875-3.398437 7.773438.925781 2.367187 3.191406 3.8125 5.589844 3.8125zm0 0" fill="#f9cfcf"/><path d="m343.292969 265.277344c-.292969 0-.585938.03125-.875.09375l-48.382813 10.460937c-1.882812.40625-3.246094 2.097657-3.246094 4.023438v41.339843c-1.523437-.429687-3.164062-.679687-4.898437-.679687-1.109375 0-2.238281.101563-3.351563.296875-4.027343.710938-7.617187 2.628906-10.097656 5.402344-2.589844 2.894531-3.6875 6.367187-3.085937 9.785156 1.042969 5.917969 6.894531 10.054688 14.230469 10.054688 1.113281 0 2.238281-.097657 3.351562-.292969 4.03125-.710938 7.617188-2.628907 10.097656-5.398438 2.316406-2.585937 3.425782-5.632812 3.210938-8.6875.007812-.113281.035156-.21875.035156-.335937v-37.089844l37.625-8.132812v26.726562c-1.523438-.429688-3.164062-.675781-4.894531-.675781-1.113281 0-2.238281.097656-3.351563.292969-4.027344.710937-7.613281 2.628906-10.097656 5.402343-2.589844 2.894531-3.6875 6.371094-3.085938 9.785157 1.046876 5.921874 6.898438 10.054687 14.234376 10.054687 1.109374 0 2.238281-.097656 3.347656-.296875 4.03125-.707031 7.617187-2.625 10.097656-5.398438 2.34375-2.617187 3.453125-5.707031 3.199219-8.800781.015625-.152343.046875-.304687.046875-.460937v-53.351563c.003906-2.269531-1.839844-4.117187-4.109375-4.117187zm0 0" fill="#f9a7a7"/><path d="m384.578125 310.671875c0-2.617187-2.128906-4.746094-4.746094-4.746094-2.617187 0-4.75 2.128907-4.75 4.746094v40.460937c-1.523437-.429687-3.164062-.675781-4.894531-.675781-1.113281 0-2.238281.097657-3.351562.292969-4.027344.710938-7.613282 2.628906-10.097657 5.402344-2.589843 2.894531-3.6875 6.371094-3.085937 9.785156 1.046875 5.921875 6.898437 10.054688 14.234375 10.054688 1.109375 0 2.238281-.097657 3.347656-.292969 4.03125-.710938 7.617187-2.628907 10.097656-5.402344 2.347657-2.617187 3.453125-5.707031 3.199219-8.800781.015625-.152344.046875-.300782.046875-.460938zm0 0" fill="#f9a7a7"/><path d="m123.625 293.097656-48.382812-10.457031c-.289063-.0625-.582032-.09375-.875-.09375-.894532 0-1.714844.292969-2.390626.78125-1.820312.664063-3.125 2.398437-3.125 4.445313v40.457031c-1.527343-.429688-3.164062-.675781-4.898437-.675781-1.113281 0-2.238281.097656-3.347656.292968-4.03125.710938-7.617188 2.628906-10.101563 5.402344-2.589844 2.894531-3.6875 6.371094-3.085937 9.785156 1.046875 5.921875 6.898437 10.054688 14.234375 10.054688 1.109375 0 2.238281-.097656 3.347656-.292969 4.03125-.710937 7.617188-2.628906 10.101562-5.402344 2.34375-2.613281 3.449219-5.707031 3.195313-8.800781.015625-.152344.046875-.300781.046875-.460938v-35.050781l39.027344 8.4375v26.742188c-1.523438-.429688-3.164063-.675781-4.898438-.675781-1.109375 0-2.238281.097656-3.347656.292968-4.03125.710938-7.617188 2.628906-10.097656 5.402344-2.59375 2.894531-3.691406 6.371094-3.085938 9.785156 1.042969 5.921875 6.894532 10.058594 14.230469 10.058594 1.109375 0 2.238281-.101562 3.351563-.296875 4.027343-.707031 7.613281-2.625 10.097656-5.402344 2.34375-2.613281 3.449218-5.707031 3.195312-8.796875.015625-.15625.046875-.304687.046875-.464844v-39.675781c0-.003906.003907-.011719.003907-.019531v-11.34375c.003906-1.925781-1.363282-3.621094-3.242188-4.027344zm0 0" fill="#f9a7a7"/><path d="m173.144531 312.808594c-2.617187 0-4.75 2.128906-4.75 4.746094v40.460937c-1.523437-.429687-3.164062-.679687-4.894531-.679687-1.113281 0-2.238281.101562-3.351562.296874-4.027344.710938-7.613282 2.628907-10.097657 5.402344-2.589843 2.894532-3.6875 6.367188-3.085937 9.785156 1.046875 5.917969 6.898437 10.054688 14.234375 10.054688 1.109375 0 2.238281-.097656 3.347656-.296875 4.03125-.707031 7.617187-2.625 10.097656-5.398437 2.34375-2.617188 3.453125-5.707032 3.199219-8.800782.015625-.152344.046875-.304687.046875-.460937v-50.359375c0-2.621094-2.128906-4.75-4.746094-4.75zm0 0" fill="#f9a7a7"/><path d="m310.308594 100.160156h-54.308594c-1.671875 0-3.027344-1.355468-3.027344-3.027344v-57.867187c0-6.5-5.269531-11.769531-11.769531-11.769531h-27.929687c-6.5 0-11.773438 5.269531-11.773438 11.769531v57.867187c0 1.671876-1.355469 3.027344-3.027344 3.027344h-54.308594c-6.371093 0-11.539062 5.167969-11.539062 11.542969v28.386719c0 6.375 5.167969 11.542968 11.539062 11.542968h54.3125c1.671876 0 3.027344 1.355469 3.027344 3.027344v148.695313c0 6.5 5.273438 11.769531 11.773438 11.769531h27.929687c6.5 0 11.769531-5.269531 11.769531-11.769531v-148.695313c0-1.671875 1.355469-3.027344 3.027344-3.027344h54.3125c6.375 0 11.539063-5.167968 11.539063-11.542968v-28.386719c-.003907-6.375-5.167969-11.542969-11.546875-11.542969zm0 0" fill="#ffea92"/><path d="m241.203125 319.125h-27.929687c-8.699219 0-15.773438-7.074219-15.773438-15.769531v-147.726563h-53.339844c-8.566406 0-15.539062-6.96875-15.539062-15.539062v-28.386719c0-8.570313 6.972656-15.542969 15.542968-15.542969h53.335938v-56.894531c0-8.695313 7.074219-15.769531 15.773438-15.769531h27.929687c8.695313 0 15.769531 7.074218 15.769531 15.773437v56.890625h53.335938c8.570312 0 15.542968 6.972656 15.542968 15.542969v28.386719c0 8.570312-6.972656 15.542968-15.542968 15.542968h-53.335938v147.722657c0 8.695312-7.074218 15.769531-15.769531 15.769531zm-97.039063-214.964844c-4.15625 0-7.539062 3.382813-7.539062 7.542969v28.386719c0 4.15625 3.378906 7.542968 7.539062 7.542968h54.3125c3.875 0 7.027344 3.152344 7.027344 7.027344v148.699219c0 4.28125 3.484375 7.769531 7.769532 7.769531h27.933593c4.28125 0 7.769531-3.488281 7.769531-7.769531v-148.699219c0-3.875 3.152344-7.03125 7.027344-7.03125h54.308594c4.160156 0 7.542969-3.382812 7.542969-7.539062v-28.386719c0-4.160156-3.382813-7.542969-7.542969-7.542969h-54.308594c-3.875 0-7.027344-3.152344-7.027344-7.027344v-57.863281c0-4.285156-3.484374-7.773437-7.769531-7.773437h-27.929687c-4.285156 0-7.773438 3.488281-7.773438 7.769531v57.871094c0 3.875-3.148437 7.027343-7.027344 7.027343h-54.3125zm0 0" fill="#3762cc"/></svg>