<svg height="481pt" viewBox="0 -2 481.36711 481" width="481pt" xmlns="http://www.w3.org/2000/svg"><path d="m410.167969 263.308594c29.027343-110.273438-36.832031-223.203125-147.105469-252.234375-110.277344-29.027344-223.207031 36.832031-252.234375 147.105469-29.03125 110.277343 36.828125 223.203124 147.101563 252.238281 110.277343 29.03125 223.207031-36.832031 252.238281-147.109375zm-241.707031-63.628906c6.101562-23.175782 29.925781-37.070313 53.101562-30.96875 23.179688 6.101562 37.074219 29.921874 30.96875 53.101562-6.101562 23.175781-29.921875 37.070312-53.101562 30.96875-23.179688-6.101562-37.070313-29.921875-30.96875-53.101562zm0 0" fill="#4671c6"/><path d="m410.167969 263.308594c29.027343-110.273438-36.832031-223.203125-147.105469-252.234375-110.277344-29.027344-223.207031 36.832031-252.234375 147.105469-29.03125 110.277343 36.828125 223.203124 147.101563 252.238281 110.277343 29.03125 223.207031-36.832031 252.238281-147.109375zm-241.707031-63.628906c6.101562-23.175782 29.925781-37.070313 53.101562-30.96875 23.179688 6.101562 37.074219 29.921874 30.96875 53.101562-6.101562 23.175781-29.921875 37.070312-53.101562 30.96875-23.179688-6.101562-37.070313-29.921875-30.96875-53.101562zm0 0" fill="#4671c6"/><path d="m210.113281 167.324219v-.039063c-12.777343.117188-24.808593 5.910156-32.902343 15.523438l.03125.027344c8.09375-9.613282 20.09375-15.394532 32.871093-15.511719zm0 0" fill="#a4c9ff"/><path d="m209.726562 123.824219-1.058593-119.582031c-60.777344.503906-117.921875 28.015624-156.355469 73.746093l91.605469 76.878907c16.191406-19.226563 40.25-30.808594 65.808593-31.042969zm0 0" fill="#a4c9ff"/><path d="m244.003906 238.359375.027344.023437c2.898438-3.507812 5.28125-7.511718 6.988281-11.921874-1.71875 4.402343-4.113281 8.390624-7.015625 11.898437zm0 0" fill="#a4c9ff"/><path d="m251.863281 224.082031c.242188-.746093.464844-1.503906.667969-2.269531-.199219.765625-.425781 1.523438-.667969 2.269531zm0 0" fill="#a4c9ff"/><path d="m252.53125 221.8125c.203125-.769531.382812-1.535156.539062-2.304688-.15625.769532-.335937 1.535157-.539062 2.304688zm0 0" fill="#a4c9ff"/><path d="m253.132812 219.160156c.132813-.679687.253907-1.355468.355469-2.035156-.097656.679688-.222656 1.355469-.355469 2.035156zm0 0" fill="#a4c9ff"/><path d="m251.058594 226.363281c.246094-.640625.472656-1.289062.691406-1.945312-.21875.652343-.445312 1.304687-.691406 1.945312zm0 0" fill="#a4c9ff"/><path d="m294.566406 232.878906c-3.304687 12.554688-9.226562 23.734375-17.003906 33.140625l92.296875 76.0625c18.433594-22.339843 32.449219-48.925781 40.304687-78.769531 7.855469-29.847656 8.75-59.886719 3.703126-88.40625l-117.785157 20.757812c2.140625 12.011719 1.792969 24.65625-1.515625 37.214844zm0 0" fill="#a4c9ff"/><path d="m253.292969 203.203125-.035157.007813c.796876 4.480468.917969 9.132812.246094 13.808593.683594-4.679687.585938-9.335937-.210937-13.816406zm0 0" fill="#a4c9ff"/><path d="m210.847656 421.308594c-17.984375 0-36.082031-2.324219-53.933594-7.023438-112.230468-29.546875-179.5-144.890625-149.953124-257.121094 14.308593-54.371093 48.9375-99.90625 97.503906-128.230468 48.5625-28.320313 105.25-36.039063 159.617187-21.726563 54.367188 14.316407 99.90625 48.941407 128.230469 97.507813 28.324219 48.5625 36.035156 105.25 21.726562 159.613281-14.3125 54.371094-48.941406 99.910156-97.507812 128.230469-32.617188 19.023437-68.902344 28.75-105.683594 28.75zm-.6875-413.121094c-35.386718 0-70.285156 9.355469-101.667968 27.65625-46.71875 27.246094-80.027344 71.054688-93.796876 123.355469-28.421874 107.964843 36.289063 218.925781 144.253907 247.347656 52.300781 13.773437 106.832031 6.347656 153.550781-20.898437 46.71875-27.246094 80.03125-71.054688 93.800781-123.355469 13.765625-52.304688 6.34375-106.832031-20.902343-153.550781-27.246094-46.714844-71.054688-80.03125-123.355469-93.796876-17.171875-4.519531-34.585938-6.757812-51.882813-6.757812zm0 0" fill="#3762cc"/><path d="m37.269531 165.140625c25.148438-95.515625 123.3125-152.765625 218.828125-127.621094 95.515625 25.148438 152.769532 123.3125 127.625 218.828125-25.144531 95.515625-123.3125 152.769532-218.828125 127.621094-95.515625-25.144531-152.769531-123.3125-127.625-218.828125zm338.898438 89.21875c24.046875-91.347656-30.707031-185.234375-122.058594-209.285156-91.351563-24.046875-185.234375 30.707031-209.28125 122.058593-24.050781 91.351563 30.703125 185.234376 122.054687 209.285157 91.351563 24.046875 185.234376-30.707031 209.285157-122.058594zm0 0" fill="#3762cc"/><path d="m67.492188 173.097656c20.757812-78.851562 101.800781-126.117187 180.652343-105.355468 78.851563 20.757812 126.113281 101.796874 105.355469 180.648437s-101.796875 126.117187-180.652344 105.359375c-78.851562-20.761719-126.113281-101.796875-105.355468-180.652344zm278.453124 73.304688c19.660157-74.683594-25.105468-151.441406-99.792968-171.105469-74.6875-19.660156-151.441406 25.101563-171.105469 99.792969-19.660156 74.6875 25.105469 151.441406 99.789063 171.105468 74.6875 19.660157 151.445312-25.105468 171.109374-99.792968zm0 0" fill="#3762cc"/><path d="m97.714844 181.054688c16.371094-62.1875 80.285156-99.460938 142.472656-83.09375 62.1875 16.375 99.464844 80.285156 83.089844 142.472656-16.371094 62.1875-80.28125 99.460937-142.472656 83.09375-62.1875-16.371094-99.460938-80.285156-83.089844-142.472656zm218.007812 57.394531c15.273438-58.023438-19.5-117.65625-77.527344-132.929688-58.019531-15.277343-117.648437 19.503907-132.925781 77.523438-15.277343 58.023437 19.5 117.65625 77.523438 132.929687 58.023437 15.273438 117.65625-19.503906 132.929687-77.523437zm0 0" fill="#3762cc"/><path d="m294.566406 232.878906c12.203125-46.359375-15.582031-94-61.9375-106.203125-46.359375-12.207031-94 15.582031-106.203125 61.9375-12.203125 46.359375 15.582031 94 61.9375 106.203125 46.355469 12.207032 94-15.582031 106.203125-61.9375zm-126.105468-33.199218c6.101562-23.175782 29.925781-37.070313 53.101562-30.96875 23.179688 6.101562 37.074219 29.921874 30.96875 53.101562-6.101562 23.175781-29.921875 37.070312-53.101562 30.96875-23.179688-6.101562-37.070313-29.921875-30.96875-53.101562zm0 0" fill="#e0ebfc"/><path d="m210.578125 301.710938c-7.75 0-15.546875-1-23.234375-3.023438-48.488281-12.769531-77.550781-62.605469-64.789062-111.09375 12.765624-48.488281 62.597656-77.546875 111.089843-64.792969 48.492188 12.769531 77.554688 62.605469 64.789063 111.09375-6.175782 23.457031-21.140625 43.117188-42.148438 55.367188-14.117187 8.238281-29.8125 12.449219-45.707031 12.449219zm-.066406-173.910157c-36.753907 0-70.429688 24.652344-80.21875 61.828125-11.640625 44.226563 14.867187 89.675782 59.089843 101.320313 21.386719 5.628906 43.714844 2.578125 62.875-8.597657 19.160157-11.171874 32.8125-29.105468 38.441407-50.492187 11.644531-44.222656-14.863281-89.675781-59.085938-101.316406-7.050781-1.855469-14.132812-2.742188-21.101562-2.742188zm.03125 130.425781c-4.046875 0-8.117188-.519531-12.128907-1.578124-25.3125-6.664063-40.484374-32.675782-33.820312-57.988282 6.664062-25.308594 32.675781-40.464844 57.988281-33.816406 12.246094 3.222656 22.507813 11.035156 28.902344 22 6.394531 10.960938 8.140625 23.746094 4.917969 35.984375-3.222656 12.246094-11.035156 22.511719-22 28.902344-7.371094 4.300781-15.5625 6.496093-23.859375 6.496093zm-38.214844-57.53125c-2.675781 10.179688-1.226563 20.804688 4.09375 29.921876 5.316406 9.117187 13.851563 15.617187 24.027344 18.292968 10.175781 2.679688 20.800781 1.222656 29.921875-4.089844 9.117187-5.316406 15.617187-13.851562 18.292968-24.027343 2.679688-10.179688 1.226563-20.804688-4.089843-29.921875-5.320313-9.117188-13.851563-15.617188-24.027344-18.292969-21.046875-5.535156-42.679687 7.074219-48.21875 28.117187zm0 0" fill="#3762cc"/><path d="m348.714844 324.648438c16.558594-20.027344 28.34375-42.992188 35.007812-68.300782 6.660156-25.292968 7.726563-51.09375 3.175782-76.695312l-7.691407 1.367187c4.351563 24.476563 3.328125 49.152344-3.039062 73.339844-6.375 24.210937-17.644531 46.171875-33.484375 65.324219zm0 0" fill="#e0ebfc"/><path d="m79.292969 100.628906c32.367187-38.457031 79.527343-60.753906 129.6875-61.210937l-.074219-7.8125c-52.449219.480469-101.757812 23.789062-135.597656 64.003906zm0 0" fill="#e0ebfc"/><path d="m318.582031 299.8125c12.949219-15.664062 22.15625-33.632812 27.363281-53.410156 5.207032-19.773438 6.042969-39.945313 2.484376-59.957032l7.691406-1.371093c3.757812 21.136719 2.875 42.441406-2.621094 63.316406-5.496094 20.878906-15.21875 39.855469-28.894531 56.402344zm0 0" fill="#e0ebfc"/><path d="m207.828125 70.691406 1.425781-.078125-.066406-7.703125-1.511719-.03125c-42.78125.832032-83.125 20.1875-110.6875 53.097656l5.988281 5.015626c26.113282-31.179688 64.332032-49.515626 104.851563-50.300782zm0 0" fill="#e0ebfc"/><path d="m121.082031 135.882812c22.027344-26.234374 54.242188-41.457031 88.382813-41.769531l.070312 7.8125c-31.851562.292969-61.910156 14.5-82.46875 38.980469zm0 0" fill="#e0ebfc"/><path d="m294.46875 279.941406c10.058594-12.171875 17.210938-26.132812 21.253906-41.492187 4.042969-15.363281 4.695313-31.035157 1.929688-46.582031l7.691406-1.367188c2.964844 16.671875 2.269531 33.46875-2.066406 49.9375-4.332032 16.464844-12 31.429688-22.789063 44.480469zm0 0" fill="#e0ebfc"/><path d="m327.304688 209.105469c0 66.070312-53.5625 119.628906-119.632813 119.628906s-119.628906-53.558594-119.628906-119.628906c0-66.070313 53.558593-119.628907 119.628906-119.628907s119.632813 53.558594 119.632813 119.628907zm0 0" fill="#e0ebfc"/><g fill="#4671c6"><path d="m235.617188 184.894531c-13.609376 0-24.640626 11.035157-24.640626 24.644531v.445313h-49.285156c0 27.222656 22.066406 49.289063 49.285156 49.289063s49.285157-22.066407 49.285157-49.289063c0-.648437-.023438-1.292969-.046875-1.9375-.773438-12.914063-11.488282-23.152344-24.597656-23.152344zm0 0"/><path d="m281.5 152.636719-8.824219-12.601563c-.566406-.8125-.367187-1.929687.441407-2.496094l4.402343-3.085937c.8125-.566406 1.929688-.367187 2.496094.441406l8.824219 12.601563c.570312.808594.371094 1.929687-.4375 2.496094l-4.40625 3.082031c-.808594.570312-1.925782.375-2.496094-.4375zm0 0"/><path d="m286.046875 180.996094-23.644531-33.765625c-.570313-.808594-.371094-1.929688.4375-2.496094l4.40625-3.085937c.808594-.566407 1.925781-.367188 2.496094.441406l23.644531 33.765625c.566406.8125.367187 1.929687-.441407 2.496093l-4.402343 3.085938c-.8125.566406-1.929688.371094-2.496094-.441406zm0 0"/><path d="m296.320312 173.800781-8.824218-12.601562c-.566406-.808594-.367188-1.925781.441406-2.496094l4.402344-3.082031c.8125-.570313 1.929687-.371094 2.496094.4375l8.824218 12.601562c.570313.8125.371094 1.929688-.4375 2.496094l-4.40625 3.085938c-.808594.566406-1.925781.371093-2.496094-.441407zm0 0"/><path d="m260.949219 167.027344-8.824219-12.601563c-.566406-.808593-.371094-1.925781.441406-2.496093l4.402344-3.082032c.808594-.570312 1.929688-.371094 2.496094.4375l8.824218 12.601563c.566407.8125.371094 1.929687-.441406 2.496093l-4.402344 3.085938c-.808593.566406-1.929687.371094-2.496093-.441406zm0 0"/><path d="m275.769531 188.191406-8.824219-12.601562c-.566406-.808594-.371093-1.929688.441407-2.496094l4.402343-3.082031c.808594-.570313 1.929688-.371094 2.496094.4375l8.824219 12.601562c.566406.8125.371094 1.929688-.441406 2.496094l-4.402344 3.085937c-.8125.566407-1.929687.371094-2.496094-.441406zm0 0"/><path d="m157.957031 270.6875-23.644531-33.765625c-.570312-.8125-.371094-1.929687.4375-2.496094l4.40625-3.085937c.808594-.566406 1.925781-.371094 2.496094.441406l23.644531 33.765625c.566406.808594.367187 1.925781-.441406 2.496094l-4.40625 3.082031c-.808594.570312-1.925781.375-2.492188-.4375zm0 0"/><path d="m132.859375 256.71875-8.824219-12.601562c-.566406-.8125-.371094-1.929688.441406-2.496094l4.402344-3.085938c.808594-.566406 1.929688-.367187 2.496094.441406l8.824219 12.601563c.566406.808594.371093 1.929687-.441407 2.496094l-4.402343 3.082031c-.808594.570312-1.929688.371094-2.496094-.4375zm0 0"/><path d="m147.679688 277.882812-8.824219-12.601562c-.566407-.8125-.371094-1.929688.441406-2.496094l4.402344-3.085937c.808593-.566407 1.929687-.371094 2.496093.441406l8.824219 12.601563c.566407.808593.371094 1.929687-.441406 2.496093l-4.402344 3.082031c-.8125.570313-1.929687.371094-2.496093-.4375zm0 0"/><path d="m137.402344 285.078125-23.644532-33.765625c-.566406-.808594-.367187-1.929688.441407-2.496094l4.402343-3.085937c.8125-.566407 1.929688-.367188 2.496094.441406l23.644532 33.765625c.570312.8125.371093 1.929688-.4375 2.496094l-4.40625 3.085937c-.8125.566407-1.929688.367188-2.496094-.441406zm0 0"/><path d="m146.640625 140.035156-23.644531 33.765625c-.566406.8125-1.683594 1.007813-2.496094.441407l-4.402344-3.085938c-.808594-.566406-1.007812-1.683594-.441406-2.496094l23.644531-33.765625c.566407-.808593 1.6875-1.007812 2.496094-.4375l4.402344 3.082031c.8125.570313 1.011719 1.683594.441406 2.496094zm0 0"/><path d="m156.917969 147.230469-23.644531 33.765625c-.566407.808594-1.683594 1.007812-2.496094.441406l-4.402344-3.085938c-.808594-.566406-1.007812-1.683593-.441406-2.496093l23.644531-33.765625c.570313-.808594 1.6875-1.007813 2.496094-.441406l4.40625 3.085937c.808593.566406 1.003906 1.6875.4375 2.496094zm0 0"/><path d="m167.191406 154.425781-23.640625 33.765625c-.570312.8125-1.6875 1.007813-2.496093.441406l-4.40625-3.085937c-.808594-.566406-1.007813-1.683594-.4375-2.496094l23.640624-33.765625c.570313-.808594 1.6875-1.007812 2.496094-.4375l4.40625 3.082032c.8125.570312 1.007813 1.6875.4375 2.496093zm0 0"/><path d="m270.1875 258.085938-8.824219 12.601562c-.566406.8125-1.6875 1.007812-2.496093.441406l-4.402344-3.085937c-.8125-.566407-1.007813-1.683594-.441406-2.496094l8.824218-12.601563c.566406-.808593 1.683594-1.007812 2.496094-.4375l4.402344 3.082032c.8125.566406 1.007812 1.683594.441406 2.496094zm0 0"/><path d="m285.007812 236.921875-8.824218 12.601563c-.570313.808593-1.6875 1.007812-2.496094.4375l-4.40625-3.082032c-.808594-.570312-1.007812-1.6875-.4375-2.496094l8.824219-12.601562c.566406-.8125 1.683593-1.007812 2.496093-.441406l4.402344 3.085937c.8125.566407 1.007813 1.683594.441406 2.496094zm0 0"/><path d="m290.742188 272.476562-8.824219 12.597657c-.570313.8125-1.6875 1.011719-2.496094.441406l-4.40625-3.082031c-.808594-.570313-1.007813-1.6875-.4375-2.496094l8.824219-12.601562c.566406-.808594 1.683594-1.007813 2.496094-.441407l4.402343 3.085938c.808594.566406 1.007813 1.6875.441407 2.496093zm0 0"/><path d="m305.5625 251.3125-8.824219 12.597656c-.570312.8125-1.6875 1.011719-2.496093.441406l-4.40625-3.082031c-.808594-.570312-1.007813-1.6875-.4375-2.496093l8.824218-12.601563c.566406-.808594 1.683594-1.007813 2.496094-.441406l4.402344 3.085937c.808594.566406 1.007812 1.6875.441406 2.496094zm0 0"/><path d="m280.464844 265.28125-8.824219 12.601562c-.570313.8125-1.6875 1.007813-2.496094.441407l-4.40625-3.085938c-.808593-.566406-1.007812-1.683593-.4375-2.496093l8.824219-12.601563c.566406-.808594 1.683594-1.007813 2.492188-.4375l4.40625 3.082031c.8125.566406 1.007812 1.683594.441406 2.496094zm0 0"/><path d="m295.28125 244.117188-8.820312 12.601562c-.570313.808594-1.6875 1.007812-2.496094.4375l-4.40625-3.082031c-.808594-.566407-1.007813-1.6875-.441406-2.496094l8.824218-12.601563c.570313-.808593 1.6875-1.007812 2.496094-.441406l4.40625 3.085938c.8125.566406 1.007812 1.683594.4375 2.496094zm0 0"/></g><path d="m210.976562 160.703125c-26.996093 0-48.910156 21.703125-49.269531 48.613281.359375 13.296875 11.242188 23.96875 24.625 23.96875 13.609375 0 24.644531-11.03125 24.644531-24.640625v1.34375h49.285157c0-27.222656-22.066407-49.285156-49.285157-49.285156zm0 0" fill="#f9a7a7"/><path d="m260.242188 209.203125c-.011719-.386719-.015626-.769531-.03125-1.15625-.773438-12.914063-11.484376-23.152344-24.59375-23.152344-13.496094 0-24.445313 10.855469-24.625 24.308594h-.007813v.167969c0 .058594-.007813.113281-.007813.167968v.449219h.007813v1.265625h49.273437v-2.050781zm0 0" fill="#4671c6"/><path d="m427.515625 455.855469h-48.648437c-6.707032 0-12.140626-5.4375-12.140626-12.144531v-194.925782h72.933594v194.921875c0 6.710938-5.4375 12.148438-12.144531 12.148438zm0 0" fill="#f9a7a7"/><path d="m403.921875 341.417969c-6.25 0-11.320313-5.066407-11.320313-11.320313v-33.964844c0-6.253906 5.066407-11.324218 11.320313-11.324218s11.324219 5.070312 11.324219 11.324218v33.964844c0 6.253906-5.070313 11.320313-11.324219 11.320313zm0 0" fill="#e0ebfc"/><path d="m403.921875 284.4375c-6.25 0-11.320313 5.429688-11.320313 12.128906v12.941406c0 6.699219 5.066407 12.128907 11.320313 12.128907s11.324219-5.429688 11.324219-12.128907v-12.941406c0-6.699218-5.070313-12.128906-11.324219-12.128906zm0 0" fill="#4671c6"/><path d="m410.890625 364.125c0 3.527344-2.859375 6.386719-6.386719 6.386719s-6.386718-2.859375-6.386718-6.386719 2.859374-6.386719 6.386718-6.386719 6.386719 2.859375 6.386719 6.386719zm0 0" fill="#6bdddd"/><path d="m403.042969 218.800781h-46.035157c-1.109374 0-1.992187 1.175781-1.941406 2.578125.3125 8.96875 2.246094 17.757813 5.675782 25.769532.429687 1.007812 1.261718 1.636718 2.164062 1.636718h80.269531c.902344 0 1.734375-.628906 2.164063-1.636718 3.429687-8.011719 5.363281-16.800782 5.675781-25.769532.046875-1.402344-.832031-2.578125-1.941406-2.578125zm0 0" fill="#6bdddd"/><path d="m357.007812 218.800781h92.066407c.589843 0 1.109375.335938 1.464843.859375 10.785157-12.28125 17.390626-28.746094 17.390626-46.851562 0-37.996094-29.046876-68.796875-64.878907-68.796875-35.828125 0-64.878906 30.800781-64.878906 68.796875 0 18.097656 6.601563 34.554687 17.378906 46.839844.355469-.515626.871094-.847657 1.457031-.847657zm0 0" fill="#a4c9ff"/><path d="m430.515625 462.539062v-7.074218c-.960937.242187-1.960937.390625-3 .386718h-48.644531c-.378906 0-.757813-.023437-1.128906-.058593v6.742187c0 6.082032 4.929687 11.007813 11.007812 11.007813h30.757812c6.078126.003906 11.007813-4.925781 11.007813-11.003907zm0 0" fill="#6bdddd"/><path d="m427.515625 459.855469h-48.644531c-8.902344 0-16.144532-7.246094-16.144532-16.148438v-194.921875c0-2.210937 1.789063-4 4-4h72.933594c2.207032 0 4 1.789063 4 4v194.921875c0 8.902344-7.242187 16.148438-16.144531 16.148438zm-56.789063-207.070313v190.921875c0 4.492188 3.652344 8.148438 8.144532 8.148438h48.644531c4.492187 0 8.144531-3.65625 8.144531-8.148438v-190.921875zm0 0" fill="#3762cc"/><path d="m443.179688 252.785156h-80.273438c-2.53125 0-4.769531-1.558594-5.84375-4.0625-3.648438-8.519531-5.664062-17.671875-5.992188-27.207031-.066406-1.867187.601563-3.667969 1.832032-4.941406 1.105468-1.144531 2.566406-1.777344 4.105468-1.777344h92.066407c1.539062 0 3 .632813 4.105469 1.777344 1.230468 1.273437 1.898437 3.074219 1.832031 4.941406-.332031 9.539063-2.347657 18.691406-5.996094 27.207031-1.050781 2.464844-3.34375 4.0625-5.835937 4.0625zm-79.09375-8h77.910156c2.816406-6.828125 4.511718-14.382812 4.949218-21.984375h-87.808593c.4375 7.601563 2.136719 15.152344 4.949219 21.984375zm84.988281-21.984375h.019531zm0 0" fill="#3762cc"/><path d="m450.542969 223.660156c-.082031 0-.167969 0-.25-.007812-.824219-.046875-1.601563-.351563-2.230469-.851563h-90.050781c-.632813.492188-1.410157.792969-2.230469.839844-1.238281.050781-2.425781-.429687-3.238281-1.355469-11.847657-13.503906-18.371094-31.074218-18.371094-49.480468 0-40.136719 30.898437-72.792969 68.878906-72.792969 37.976563 0 68.875 32.65625 68.875 72.792969 0 18.410156-6.527343 35.988281-18.382812 49.496093-.757813.867188-1.855469 1.359375-3 1.359375zm-1.46875-.859375h.019531zm-92.066407-8h92.066407c.105469 0 .210937.003907.316406.007813 9.398437-11.722656 14.539063-26.527344 14.539063-42.003906 0-35.726563-27.308594-64.792969-60.875-64.792969-33.570313 0-60.878907 29.066406-60.878907 64.792969 0 15.480468 5.144531 30.28125 14.539063 42.003906.097656-.007813.195312-.007813.292968-.007813zm0 0" fill="#3762cc"/><path d="m419.507812 477.546875h-30.757812c-8.277344 0-15.007812-6.734375-15.007812-15.007813v-6.742187c0-1.125.472656-2.203125 1.308593-2.957031.832031-.757813 1.949219-1.140625 3.066407-1.027344.246093.027344.5.042969.75.042969h48.660156c.652344 0 1.300781-.085938 1.996094-.265625 1.195312-.308594 2.46875-.042969 3.445312.714844.972656.757812 1.546875 1.921874 1.546875 3.160156v7.074218c0 8.273438-6.734375 15.007813-15.007813 15.007813zm-37.765624-17.691406v2.683593c0 3.863282 3.144531 7.007813 7.007812 7.007813h30.757812c3.863282 0 7.007813-3.144531 7.007813-7.007813v-2.6875zm0 0" fill="#3762cc"/><path d="m469.75 182.421875h-132.8125c-4.207031 0-7.617188-3.410156-7.617188-7.617187v-.441407c0-4.207031 3.410157-7.613281 7.617188-7.613281h132.8125c4.207031 0 7.613281 3.40625 7.613281 7.613281v.441407c0 4.207031-3.40625 7.617187-7.613281 7.617187zm0 0" fill="#6bdddd"/><path d="m469.75 186.425781h-132.8125c-6.40625 0-11.617188-5.210937-11.617188-11.621093v-.441407c0-6.40625 5.210938-11.617187 11.617188-11.617187h132.8125c6.40625 0 11.617188 5.210937 11.617188 11.617187v.441407c-.003907 6.40625-5.214844 11.621093-11.617188 11.621093zm-132.8125-15.675781c-1.996094 0-3.617188 1.621094-3.617188 3.617188v.441406c0 1.992187 1.621094 3.617187 3.617188 3.617187h132.808594c1.996094 0 3.617187-1.625 3.617187-3.617187v-.445313c0-1.992187-1.621093-3.617187-3.617187-3.617187h-132.808594zm0 0" fill="#3762cc"/><path d="m155.320312 305.117188c-.582031 0-1.167968.0625-1.742187.1875l-96.476563 20.855468c-3.75.8125-6.472656 4.1875-6.472656 8.023438v82.410156c-3.035156-.859375-6.3125-1.332031-9.765625-1.332031-2.214843 0-4.460937.195312-6.679687.589843-8.035156 1.414063-15.1875 5.242188-20.136719 10.765626-5.167969 5.773437-7.355469 12.703124-6.152344 19.511718 2.082031 11.808594 13.75 20.050782 28.378907 20.050782 2.214843 0 4.460937-.199219 6.679687-.589844 8.035156-1.414063 15.1875-5.238282 20.136719-10.769532 4.613281-5.152343 6.832031-11.226562 6.402344-17.316406.015624-.226562.070312-.4375.070312-.664062v-73.960938l75.023438-16.21875v53.28125c-3.035157-.855468-6.3125-1.332031-9.761719-1.332031-2.21875 0-4.464844.199219-6.683594.589844-8.035156 1.417969-15.1875 5.242187-20.136719 10.769531-5.167968 5.773438-7.351562 12.703125-6.152344 19.511719 2.082032 11.804687 13.75 20.050781 28.378907 20.050781 2.214843 0 4.460937-.195312 6.679687-.589844 8.035156-1.414062 15.1875-5.242187 20.136719-10.765625 4.671875-5.21875 6.878906-11.382812 6.378906-17.546875.03125-.308594.09375-.605468.09375-.921875v-106.378906c0-4.527344-3.675781-8.210937-8.199219-8.210937zm0 0" fill="#f9a7a7"/><path d="m130.230469 438.324219c-8.945313 0-16.238281-4.539063-17.34375-10.789063-.796875-4.519531 1.828125-8.261718 3.464843-10.089844 3.238282-3.613281 8.242188-6.238281 13.734376-7.207031 1.578124-.277343 3.167968-.421875 4.734374-.421875 8.945313 0 16.242188 4.539063 17.34375 10.792969 1.175782 6.679687-5.453124 15.226563-17.199218 17.296875-1.574219.277344-3.167969.417969-4.734375.417969zm0 0" fill="#ffea92"/><path d="m70.839844 351.429688c-3.207032 0-5.820313-2.617188-5.820313-5.828126v-7.304687c0-2.75 1.875-5.089844 4.554688-5.6875l72.367187-16.175781c.421875-.09375.851563-.144532 1.28125-.144532 3.207032 0 5.820313 2.617188 5.820313 5.832032v7.300781c0 2.75-1.875 5.089844-4.558594 5.6875l-72.367187 16.175781c-.421876.097656-.851563.144532-1.277344.144532zm0 0" fill="#ffea92"/><path d="m36.273438 454.972656c-8.945313 0-16.242188-4.535156-17.34375-10.789062-.796876-4.515625 1.828124-8.257813 3.464843-10.085938 3.234375-3.613281 8.242188-6.242187 13.734375-7.210937 1.578125-.277344 3.171875-.417969 4.734375-.417969 8.945313 0 16.238281 4.539062 17.34375 10.789062.628907 3.558594-.890625 7.5-4.167969 10.808594-3.242187 3.273438-7.871093 5.578125-13.03125 6.488282-1.578124.277343-3.171874.417968-4.734374.417968zm0 0" fill="#ffea92"/></svg>