<svg height="490pt" viewBox="0 -13 490.126 490" width="490pt" xmlns="http://www.w3.org/2000/svg"><path d="m375.167969 237.65625c-38.042969 0-68.878907-30.839844-68.878907-68.882812v-95.832032c0-38.039062 30.835938-68.878906 68.878907-68.878906s68.878906 30.839844 68.878906 68.878906v95.835938c0 38.039062-30.835937 68.878906-68.878906 68.878906zm0 0" fill="#e0ebfc"/><g fill="#a4c9ff"><path d="m405.546875 150.808594c-6.617187 0-11.980469 5.363281-11.980469 11.976562 0 6.617188 5.363282 11.980469 11.980469 11.980469h38.226563c.171874-1.976563.277343-3.96875.277343-5.988281v-17.96875zm0 0"/><path d="m444.046875 108.878906h-38.5c-6.617187 0-11.980469 5.363282-11.980469 11.980469s5.363282 11.980469 11.980469 11.980469h38.5zm0 0"/><path d="m393.566406 78.929688c0 6.617187 5.367188 11.980468 11.980469 11.980468h38.503906v-17.96875c0-2.019531-.105469-4.011718-.277343-5.988281h-38.226563c-6.617187 0-11.980469 5.363281-11.980469 11.976563zm0 0"/><path d="m344.792969 150.808594h-38.503907v17.964844c0 2.023437.105469 4.015624.277344 5.992187h38.226563c6.617187 0 11.980469-5.363281 11.980469-11.980469-.003907-6.613281-5.367188-11.976562-11.980469-11.976562zm0 0"/><path d="m344.792969 108.878906h-38.503907v23.957032h38.503907c6.613281 0 11.980469-5.363282 11.980469-11.980469 0-6.613281-5.367188-11.976563-11.980469-11.976563zm0 0"/><path d="m344.792969 66.953125h-38.230469c-.167969 1.976563-.273438 3.96875-.273438 5.988281v17.96875h38.5c6.617188 0 11.980469-5.363281 11.980469-11.980468 0-6.613282-5.363281-11.976563-11.976562-11.976563zm0 0"/><path d="m375.167969 287.597656c-61.183594 0-110.957031-48.5-110.957031-108.113281 0-7.855469 6.535156-14.226563 14.601562-14.226563 8.0625 0 14.597656 6.371094 14.597656 14.226563 0 43.925781 36.679688 79.664063 81.761719 79.664063s81.757813-35.738282 81.757813-79.664063c0-7.855469 6.535156-14.226563 14.597656-14.226563 8.066406 0 14.601562 6.371094 14.601562 14.226563-.003906 59.613281-49.777344 108.113281-110.960937 108.113281zm0 0"/></g><path d="m375.171875 241.65625c-40.191406 0-72.882813-32.695312-72.882813-72.882812v-95.832032c0-40.1875 32.695313-72.878906 72.882813-72.878906 40.183594 0 72.875 32.695312 72.875 72.878906v95.832032c0 40.191406-32.691406 72.882812-72.875 72.882812zm0-233.59375c-35.777344 0-64.882813 29.105469-64.882813 64.878906v95.832032c0 35.777343 29.105469 64.878906 64.882813 64.878906 35.773437 0 64.875-29.105469 64.875-64.878906v-95.832032c0-35.773437-29.105469-64.878906-64.875-64.878906zm0 0" fill="#3762cc"/><path d="m375.167969 287.597656c-6.804688 0-13.453125-.664062-19.914063-1.871094v87.394532h39.832032v-87.394532c-6.460938 1.210938-13.113282 1.871094-19.917969 1.871094zm0 0" fill="#a4c9ff"/><path d="m375.167969 291.597656c-63.386719 0-114.957031-50.292968-114.957031-112.113281 0-10.046875 8.34375-18.222656 18.597656-18.222656 10.257812 0 18.601562 8.175781 18.601562 18.222656 0 41.71875 34.882813 75.664063 77.757813 75.664063s77.757812-33.945313 77.757812-75.664063c0-10.046875 8.34375-18.222656 18.601563-18.222656 10.253906 0 18.597656 8.175781 18.597656 18.222656 0 61.820313-51.570312 112.113281-114.957031 112.113281zm-96.359375-122.335937c-5.84375 0-10.597656 4.585937-10.597656 10.222656 0 57.40625 47.980468 104.113281 106.957031 104.113281 58.976562 0 106.957031-46.707031 106.957031-104.113281 0-5.636719-4.753906-10.222656-10.597656-10.222656s-10.601563 4.585937-10.601563 10.222656c0 46.128906-38.46875 83.664063-85.757812 83.664063-47.289063 0-85.757813-37.535157-85.757813-83.664063 0-5.636719-4.757812-10.222656-10.601562-10.222656zm0 0" fill="#3762cc"/><path d="m395.085938 377.121094h-39.832032c-2.207031 0-4-1.789063-4-4v-87.390625c0-1.191407.53125-2.320313 1.445313-3.078125.914062-.757813 2.117187-1.066406 3.292969-.855469 12.769531 2.390625 25.59375 2.390625 38.359374 0 1.164063-.21875 2.375.097656 3.289063.855469.917969.757812 1.449219 1.886718 1.449219 3.078125v87.390625c-.003906 2.210937-1.796875 4-4.003906 4zm-35.832032-8h31.832032v-78.675782c-10.625 1.53125-21.207032 1.53125-31.832032 0zm0 0" fill="#3762cc"/><path d="m225.6875 361.824219h-16.433594c-.035156 0-.070312-.007813-.105468-.007813l-.007813.007813h-108.09375c-28.558594 0-51.707031 23.152343-51.707031 51.707031v46.945312h228.054687v-46.945312c0-28.554688-23.152343-51.707031-51.707031-51.707031zm0 0" fill="#f9a7a7"/><path d="m163.367188 349.929688c-16.570313 0-32.203126-3.941407-46.007813-10.925782v20.894532c0 .722656.105469 1.4375.253906 2.140624h.011719c.152344.703126.378906 1.386719.664062 2.039063.035157.085937.074219.175781.113282.257813.125.269531.265625.527343.414062.785156.148438.246094.308594.488281.480469.722656.089844.128906.167969.265625.265625.386719l6.535156 8.308593c6.507813 8.273438 15.535156 14.265626 25.75 16.65625 1.367188.320313 2.792969.601563 4.261719.820313 16.589844 2.484375 33.179687-4.578125 43.496094-17.882813l9.523437-12.289062c.132813-.660156.21875-1.328125.21875-2.007812v-20.820313c-13.800781 6.976563-29.421875 10.914063-45.980468 10.914063zm0 0" fill="#f9cfcf"/><path d="m277.394531 464.476562h-228.054687c-2.207032 0-4-1.792968-4-4v-46.945312c0-30.714844 24.988281-55.707031 55.707031-55.707031h12.3125v-18.824219c0-1.390625.722656-2.679688 1.90625-3.40625 1.183594-.730469 2.660156-.789062 3.898437-.160156 13.769532 6.960937 28.636719 10.492187 44.203126 10.492187 15.558593 0 30.417968-3.527343 44.175781-10.480469 1.238281-.625 2.71875-.5625 3.902343.160157 1.183594.730469 1.902344 2.023437 1.902344 3.410156v18.808594h12.339844c30.714844 0 55.707031 24.992187 55.707031 55.707031v46.945312c0 2.207032-1.789062 4-4 4zm-224.054687-8h220.054687v-42.945312c0-26.304688-21.402343-47.707031-47.707031-47.707031h-16.433594c-.039062 0-.074218 0-.113281 0-1.195313 0-2.335937-.539063-3.09375-1.460938-.761719-.925781-1.070313-2.140625-.839844-3.316406.09375-.46875.140625-.867187.140625-1.210937v-14.527344c-13.230468 5.722656-27.324218 8.621094-41.980468 8.621094-14.664063 0-28.765626-2.902344-42.003907-8.632813v14.601563c0 .300781.042969.667968.140625 1.144531.234375 1.175781-.070312 2.394531-.828125 3.320312-.761719.925781-1.898437 1.464844-3.097656 1.464844h-16.53125c-26.304687 0-47.703125 21.398437-47.703125 47.707031v42.941406zm0 0" fill="#3762cc"/><path d="m277.394531 439.472656v-25.941406c0-28.554688-23.152343-51.703125-51.707031-51.703125h-16.429688c-.039062-.003906-.070312-.007813-.109374-.007813l-.003907.007813h-4.65625l-19.199219 47.019531v51.628906h92.105469zm0 0" fill="#6bdddd"/><path d="m122.234375 361.824219h-21.1875c-28.558594 0-51.707031 23.152343-51.707031 51.707031v46.945312h92.101562v-51.632812zm0 0" fill="#6bdddd"/><path d="m265.394531 211.230469c-.214843 0-.425781.027343-.640625.03125v-9.492188c0-55.492187-45.390625-100.472656-101.386718-100.472656-55.996094 0-101.390626 44.980469-101.390626 100.472656v9.492188c-.214843-.003907-.421874-.03125-.636718-.03125-17.085938 0-30.933594 13.722656-30.933594 30.65625 0 16.929687 13.847656 30.652343 30.933594 30.652343 1.121094 0 2.226562-.066406 3.316406-.183593 10.460938 44.453125 50.667969 77.574219 98.710938 77.574219 48.039062 0 88.246093-33.121094 98.707031-77.574219 1.09375.117187 2.199219.183593 3.320312.183593 17.082031 0 30.929688-13.722656 30.929688-30.652343 0-16.933594-13.847657-30.65625-30.929688-30.65625zm0 0" fill="#f9cfcf"/><path d="m112.984375 257.832031c-5.871094 0-10.644531-4.773437-10.644531-10.644531v-17.738281c0-5.867188 4.773437-10.640625 10.644531-10.640625 5.867187 0 10.640625 4.773437 10.640625 10.640625v17.738281c0 5.871094-4.773438 10.644531-10.640625 10.644531zm0 0" fill="#3762cc"/><path d="m213.269531 257.832031c-5.871093 0-10.644531-4.773437-10.644531-10.644531v-17.738281c0-5.867188 4.773438-10.640625 10.644531-10.640625 5.867188 0 10.640625 4.773437 10.640625 10.640625v17.738281c0 5.871094-4.773437 10.644531-10.640625 10.644531zm0 0" fill="#3762cc"/><path d="m168.011719 287.464844h-21.609375c-1.851563 0-3.351563 1.5-3.351563 3.347656v8.371094c0 3.09375 1.324219 6.101562 3.765625 8.566406 2.921875 2.945312 7.21875 4.851562 11.921875 5.394531v.171875h9.253907v-.171875c4.703124-.539062 8.996093-2.449219 11.921874-5.394531 2.441407-2.464844 3.765626-5.472656 3.765626-8.566406v-8.371094c0-1.851562-1.5-3.347656-3.351563-3.347656zm0 0" fill="#f9a7a7"/><path d="m277.394531 464.476562h-92.109375c-2.207031 0-4-1.792968-4-4v-51.628906c0-.519531.101563-1.03125.296875-1.511718l19.203125-47.019532c.613282-1.507812 2.078125-2.488281 3.703125-2.488281h4.410157c.152343-.011719.304687-.007813.492187 0h16.296875c30.714844 0 55.707031 24.988281 55.707031 55.707031v46.945313c0 2.203125-1.789062 3.996093-4 3.996093zm-88.109375-8h84.109375v-42.945312c0-26.304688-21.402343-47.707031-47.707031-47.707031h-16.433594c-.035156 0-.074218 0-.113281 0h-1.964844l-17.890625 43.804687zm0 0" fill="#3762cc"/><path d="m141.4375 464.476562h-92.097656c-2.210938 0-4-1.792968-4-4v-46.945312c0-30.714844 24.988281-55.707031 55.707031-55.707031h21.1875c1.628906 0 3.089844.984375 3.707031 2.488281l19.199219 47.019531c.199219.480469.296875.992188.296875 1.511719v51.632812c0 2.207032-1.789062 4-4 4zm-88.097656-8h84.101562v-46.84375l-17.890625-43.804687h-18.503906c-26.304687 0-47.707031 21.398437-47.707031 47.707031zm0 0" fill="#3762cc"/><path d="m209.347656 349.925781-24.058594 58.917969 20.898438 16.1875c1.898438 1.472656 4.671875.769531 5.640625-1.429688l26.527344-60.210937-3.824219-8.972656c-1.160156-2.726563-3.835938-4.492188-6.796875-4.492188zm0 0" fill="#6bdddd"/><path d="m208.429688 429.8125c-1.683594 0-3.328126-.554688-4.695313-1.617188l-20.898437-16.191406c-1.417969-1.097656-1.933594-3.011718-1.25-4.671875l24.058593-58.917969c.613281-1.507812 2.078125-2.488281 3.703125-2.488281h18.386719c4.574219 0 8.6875 2.71875 10.476563 6.921875l3.824218 8.972656c.433594 1.019532.425782 2.171876-.019531 3.183594l-26.527344 60.210938c-.960937 2.179687-2.839843 3.769531-5.148437 4.355468-.636719.160157-1.277344.242188-1.910156.242188zm-18.292969-22.265625 18.183593 14.085937 25.671876-58.269531-3.140626-7.375c-.535156-1.25-1.757812-2.058593-3.117187-2.058593h-15.699219zm0 0" fill="#3762cc"/><path d="m117.378906 349.925781 24.058594 58.917969-20.898438 16.1875c-1.898437 1.472656-4.671874.769531-5.640624-1.429688l-26.527344-60.210937 3.824218-8.972656c1.160157-2.726563 3.835938-4.492188 6.792969-4.492188zm0 0" fill="#6bdddd"/><path d="m118.296875 429.8125c-.636719 0-1.273437-.082031-1.90625-.242188-2.3125-.585937-4.191406-2.171874-5.152344-4.355468l-26.527343-60.210938c-.445313-1.011718-.453126-2.164062-.019532-3.179687l3.824219-8.972657c1.789063-4.207031 5.898437-6.925781 10.472656-6.925781h18.386719c1.628906 0 3.089844.984375 3.703125 2.488281l24.0625 58.917969c.675781 1.664063.164063 3.574219-1.253906 4.675781l-20.898438 16.1875c-1.367187 1.0625-3.011719 1.617188-4.691406 1.617188zm-25.566406-66.449219 25.671875 58.269531 18.1875-14.085937-21.898438-53.621094h-15.703125c-1.359375 0-2.582031.808594-3.113281 2.058594zm0 0" fill="#3762cc"/><path d="m163.367188 353.925781c-48.097657 0-89.476563-31.652343-101.78125-77.386719-.082032 0-.164063 0-.25 0-19.261719 0-34.933594-15.542968-34.933594-34.652343 0-17.984375 13.882812-32.8125 31.574218-34.496094v-5.621094c0-57.605469 47.277344-104.472656 105.386719-104.472656s105.386719 46.867187 105.386719 104.472656v5.621094c17.691406 1.683594 31.574219 16.511719 31.574219 34.496094 0 19.109375-15.671875 34.652343-34.933594 34.652343-.082031 0-.167969 0-.25 0-12.296875 45.734376-53.675781 77.386719-101.773437 77.386719zm-98.707032-85.570312c1.835938 0 3.460938 1.261719 3.890625 3.085937 10.320313 43.855469 49.3125 74.484375 94.816407 74.484375 45.5 0 84.492187-30.628906 94.8125-74.484375.460937-1.960937 2.3125-3.25 4.3125-3.0625 1.019531.109375 1.964843.160156 2.898437.160156 14.851563 0 26.933594-11.957031 26.933594-26.652343 0-14.6875-12.0625-26.636719-26.902344-26.652344-.265625.015625-.429687.027344-.597656.03125-1.097657-.015625-2.113281-.394531-2.875-1.148437-.765625-.75-1.199219-1.777344-1.199219-2.851563v-9.492187c0-53.199219-43.6875-96.472657-97.386719-96.472657s-97.386719 43.277344-97.386719 96.472657v9.492187c0 1.074219-.433593 2.101563-1.199218 2.851563-.765625.753906-1.859375 1.113281-2.875 1.148437-.167969-.003906-.335938-.015625-.5-.027344-.003906 0-.007813 0-.011719 0-14.914063 0-26.992187 11.953125-26.992187 26.648438 0 14.695312 12.082031 26.652343 26.933593 26.652343.933594 0 1.882813-.050781 2.898438-.160156.148437-.015625.289062-.023437.429687-.023437zm0 0" fill="#3762cc"/><path d="m40.867188 182.050781v36.621094c5.414062-4.625 12.449218-7.4375 20.164062-7.4375.214844 0 .425781.027344.640625.03125v-9.496094c0-2.855469.136719-5.679687.378906-8.472656-8.066406-1.851563-15.328125-5.800781-21.183593-11.246094zm0 0" fill="#4671c6"/><path d="m284.347656 194.195312h-19.824218c.195312 2.5.296874 5.027344.296874 7.574219v9.496094c.214844-.003906.421876-.03125.640626-.03125 8.007812 0 15.285156 3.042969 20.777343 7.992187v-25.195312c-.617187.097656-1.246093.164062-1.890625.164062zm0 0" fill="#4671c6"/><path d="m40.863281 222.671875c-.566406 0-1.136719-.121094-1.671875-.367187-1.417968-.65625-2.328125-2.074219-2.328125-3.632813v-36.621094c0-1.59375.945313-3.035156 2.402344-3.667969 1.457031-.632812 3.15625-.347656 4.324219.734376 5.453125 5.074218 12.144531 8.628906 19.355468 10.28125 1.945313.445312 3.265626 2.257812 3.09375 4.246093-.25 2.855469-.367187 5.515625-.367187 8.125v9.492188c0 1.074219-.433594 2.101562-1.199219 2.855469-.765625.753906-1.851562 1.109374-2.875 1.144531-.175781-.003907-.347656-.011719-.519531-.027344-.007813 0-.019531 0-.027344 0-6.472656 0-12.699219 2.300781-17.589843 6.480469-.738282.628906-1.660157.957031-2.597657.957031zm4.003907-32.425781v20.9375c3.972656-2.066406 8.324218-3.359375 12.804687-3.792969v-5.621094c0-1.792969.050781-3.601562.152344-5.460937-4.582031-1.390625-8.949219-3.4375-12.957031-6.0625zm0 0" fill="#3762cc"/><path d="m286.238281 223.226562c-.96875 0-1.925781-.355468-2.675781-1.03125-4.988281-4.492187-11.414062-6.964843-18.101562-6.964843-.222657.019531-.394532.03125-.570313.035156-1.074219-.015625-2.113281-.394531-2.875-1.148437-.769531-.75-1.199219-1.777344-1.199219-2.851563v-9.492187c0-2.394532-.097656-4.839844-.285156-7.269532-.085938-1.109375.292969-2.207031 1.054688-3.023437.757812-.820313 1.816406-1.285157 2.933593-1.285157h19.824219c.371094 0 .773438-.039062 1.269531-.117187 1.167969-.183594 2.335938.152344 3.222657.910156.886718.761719 1.398437 1.871094 1.398437 3.042969v25.195312c0 1.582032-.929687 3.011719-2.371094 3.65625-.519531.230469-1.074219.34375-1.625.34375zm-17.421875-15.835937c4.726563.457031 9.285156 1.863281 13.421875 4.125v-13.320313h-13.484375c.042969 1.203126.0625 2.394532.0625 3.578126zm0 0" fill="#3762cc"/><path d="m167.992188 317.316406h-9.253907c-.597656 0-1.164062-.128906-1.675781-.367187-5.183594-.828125-9.796875-3.066407-13.085938-6.382813-3.175781-3.203125-4.921874-7.242187-4.921874-11.378906v-8.375c0-4.050781 3.296874-7.347656 7.347656-7.347656h33.925781c4.054687 0 7.351563 3.292968 7.351563 7.347656v8.375c0 4.136719-1.75 8.175781-4.921876 11.378906-3.3125 3.335938-7.960937 5.585938-13.1875 6.398438-.480468.226562-1.015624.351562-1.578124.351562zm-8.085938-8h6.941406c.21875-.070312.453125-.121094.691406-.148437 3.824219-.4375 7.300782-1.980469 9.535157-4.234375 1.707031-1.714844 2.605469-3.707032 2.605469-5.746094v-7.722656h-32.625v7.722656c0 2.042969.898437 4.03125 2.601562 5.746094 2.234375 2.253906 5.710938 3.796875 9.539062 4.234375.246094.03125.484376.078125.710938.148437zm20.421875-17.851562h.023437zm0 0" fill="#3762cc"/><path d="m286.90625 249.433594v-59.421875c0-60.71875-49.699219-110.117188-110.785156-110.117188h-24.617188c-61.089844 0-110.785156 49.398438-110.785156 110.117188v59.203125h-22.160156v-59.203125c0-72.355469 59.640625-131.222657 132.945312-131.222657h24.617188c73.304687 0 132.941406 58.867188 132.941406 131.222657v59.421875zm0 0" fill="#a4c9ff"/><path d="m309.0625 253.433594h-22.15625c-2.207031 0-4-1.792969-4-4v-59.421875c0-58.511719-47.902344-106.117188-106.785156-106.117188h-24.617188c-58.882812 0-106.789062 47.605469-106.789062 106.117188v59.203125c0 2.207031-1.789063 4-4 4h-22.15625c-2.207032 0-4-1.792969-4-4v-59.203125c0-74.5625 61.433594-135.222657 136.945312-135.222657h24.617188c75.511718 0 136.941406 60.660157 136.941406 135.222657v59.421875c0 2.210937-1.789062 4-4 4zm-18.15625-8h14.15625v-55.421875c0-70.152344-57.84375-127.222657-128.941406-127.222657h-24.617188c-71.101562 0-128.945312 57.070313-128.945312 127.222657v55.203125h14.160156v-55.203125c0-62.925781 51.492188-114.117188 114.785156-114.117188h24.617188c63.292968 0 114.785156 51.191407 114.785156 114.117188zm0 0" fill="#3762cc"/><path d="m283.976562 288.75h29.488282c4.71875 0 8.542968-3.824219 8.542968-8.539062v-78.8125c0-4.714844-3.824218-8.539063-8.542968-8.539063h-29.488282zm0 0" fill="#f9a7a7"/><path d="m272.667969 288.75h11.308593v-95.890625h-11.308593c-4.257813 0-7.707031 3.449219-7.707031 7.707031v80.476563c0 4.257812 3.449218 7.707031 7.707031 7.707031zm0 0" fill="#e0ebfc"/><path d="m283.976562 192.859375h26.316407v-15.457031c0-1.691406-1.371094-3.0625-3.0625-3.0625h-20.191407c-1.691406 0-3.0625 1.371094-3.0625 3.0625zm0 0" fill="#f9a7a7"/><path d="m313.464844 292.75h-29.488282c-2.207031 0-4-1.789062-4-4v-95.890625c0-2.207031 1.792969-4 4-4h29.488282c6.914062 0 12.542968 5.625 12.542968 12.539063v78.8125c0 6.917968-5.628906 12.539062-12.542968 12.539062zm-25.488282-8h25.488282c2.503906 0 4.542968-2.035156 4.542968-4.539062v-78.8125c0-2.503907-2.039062-4.542969-4.542968-4.542969h-25.488282zm0 0" fill="#3762cc"/><path d="m283.976562 292.75h-11.304687c-6.460937 0-11.710937-5.25-11.710937-11.707031v-80.476563c0-6.457031 5.253906-11.707031 11.710937-11.707031h11.304687c2.207032 0 4 1.792969 4 4v95.890625c0 2.210938-1.789062 4-4 4zm-11.304687-95.890625c-2.046875 0-3.710937 1.660156-3.710937 3.707031v80.476563c0 2.042969 1.664062 3.707031 3.710937 3.707031h7.304687v-87.890625zm0 0" fill="#3762cc"/><path d="m310.289062 196.859375h-26.3125c-2.207031 0-4-1.792969-4-4v-15.457031c0-3.894532 3.167969-7.0625 7.058594-7.0625h20.195313c3.890625 0 7.058593 3.167968 7.058593 7.0625v15.457031c0 2.207031-1.789062 4-4 4zm-22.3125-8h18.3125v-10.519531h-18.3125zm0 0" fill="#3762cc"/><path d="m188.820312 82.347656h-104.15625c-8.097656-1.234375-37.347656-6.898437-49-25.566406-1.558593-2.496094-5.480468-1.808594-6.164062 1.035156-6.089844 25.324219-18.875 95.011719 15.988281 124.546875l.367188-.878906c7.929687 8.050781 18.625 12.996094 30.40625 12.996094h87.886719c25.308593 0 45.824218-22.027344 45.824218-49.195313v-40.230468c-.003906-12.539063-9.46875-22.707032-21.152344-22.707032zm0 0" fill="#4671c6"/><path d="m164.148438 198.480469h-87.886719c-11.460938 0-22.394531-4.289063-31.101563-12.128907-.820312-.070312-1.613281-.386718-2.257812-.9375-36.136719-30.621093-24.128906-100.089843-17.289063-128.539062.691407-2.878906 3.058594-5.050781 6.027344-5.535156 2.957031-.472656 5.863281.828125 7.417969 3.324218 10.78125 17.261719 39.480468 22.671876 45.917968 23.683594h103.84375c13.871094 0 25.148438 11.980469 25.148438 26.707032v40.226562c0 29.335938-22.347656 53.199219-49.820312 53.199219zm-118.105469-20.996094c.996093.046875 1.945312.464844 2.660156 1.191406 7.503906 7.609375 17.289063 11.804688 27.558594 11.804688h87.886719c23.0625 0 41.824218-20.277344 41.824218-45.199219v-40.226562c0-10.3125-7.691406-18.707032-17.148437-18.707032h-104.160157c-.199218 0-.402343-.015625-.601562-.042968-8.808594-1.34375-38.070312-7.160157-51-26.1875-5.183594 22.140624-17.425781 88.378906 12.980469 117.367187zm0 0" fill="#3762cc"/><path d="m278.058594 194.195312h-31.515625c-20.199219 0-36.574219-16.375-36.574219-36.574218v-53.332032c0-12.117187 9.824219-21.941406 21.941406-21.941406h8.464844c27.363281 0 49.546875 22.183594 49.546875 49.546875v50.4375c0 6.550781-5.3125 11.863281-11.863281 11.863281zm0 0" fill="#4671c6"/><path d="m278.058594 198.195312h-31.515625c-22.371094 0-40.574219-18.203124-40.574219-40.574218v-53.332032c0-14.300781 11.640625-25.941406 25.941406-25.941406h8.464844c29.523438 0 53.546875 24.019532 53.546875 53.542969v50.441406c0 8.746094-7.117187 15.863281-15.863281 15.863281zm-46.148438-111.847656c-9.890625 0-17.941406 8.050782-17.941406 17.941406v53.332032c0 17.960937 14.613281 32.574218 32.574219 32.574218h31.515625c4.335937 0 7.863281-3.527343 7.863281-7.863281v-50.441406c0-25.113281-20.433594-45.542969-45.542969-45.542969zm0 0" fill="#3762cc"/><path d="m42.03125 288.75h-29.492188c-4.714843 0-8.539062-3.824219-8.539062-8.539062v-78.8125c0-4.714844 3.824219-8.539063 8.539062-8.539063h29.492188zm0 0" fill="#f9a7a7"/><path d="m53.335938 288.75h-11.308594v-95.890625h11.308594c4.257812 0 7.707031 3.449219 7.707031 7.707031v80.476563c0 4.257812-3.449219 7.707031-7.707031 7.707031zm0 0" fill="#e0ebfc"/><path d="m42.03125 192.859375h-26.316406v-15.457031c0-1.691406 1.371094-3.0625 3.0625-3.0625h20.191406c1.6875 0 3.0625 1.371094 3.0625 3.0625zm0 0" fill="#f9a7a7"/><path d="m42.03125 292.75h-29.492188c-6.914062 0-12.539062-5.625-12.539062-12.539062v-78.8125c0-6.914063 5.625-12.542969 12.539062-12.542969h29.492188c2.207031 0 4 1.792969 4 4v95.894531c0 2.210938-1.792969 4-4 4zm-29.492188-95.890625c-2.5 0-4.539062 2.039063-4.539062 4.539063v78.8125c0 2.503906 2.039062 4.542968 4.539062 4.542968h25.492188v-87.894531zm0 0" fill="#3762cc"/><path d="m53.335938 292.75h-11.304688c-2.210938 0-4-1.789062-4-4v-95.890625c0-2.207031 1.789062-4 4-4h11.304688c6.457031 0 11.707031 5.25 11.707031 11.707031v80.476563c0 6.457031-5.25 11.707031-11.707031 11.707031zm-7.304688-8h7.304688c2.042968 0 3.707031-1.664062 3.707031-3.707031v-80.476563c0-2.042968-1.664063-3.707031-3.707031-3.707031h-7.304688zm0 0" fill="#3762cc"/><path d="m42.03125 196.859375h-26.316406c-2.207032 0-4-1.792969-4-4v-15.457031c0-3.894532 3.167968-7.0625 7.0625-7.0625h20.191406c3.894531 0 7.0625 3.167968 7.0625 7.0625v15.457031c0 2.207031-1.792969 4-4 4zm-22.316406-8h18.316406v-10.519531h-18.316406zm0 0" fill="#3762cc"/><path d="m461.820312 347.960938c0 14.21875-11.523437 25.742187-25.742187 25.742187-14.214844 0-25.738281-11.523437-25.738281-25.742187s11.523437-25.742188 25.738281-25.742188c14.21875 0 25.742187 11.523438 25.742187 25.742188zm0 0" fill="#e0ebfc"/><path d="m436.078125 360.558594c-6.945313 0-12.597656-5.652344-12.597656-12.597656 0-6.949219 5.652343-12.601563 12.597656-12.601563 6.949219 0 12.601563 5.652344 12.601563 12.601563 0 6.945312-5.652344 12.597656-12.601563 12.597656zm0 0" fill="#f9a7a7"/><path d="m436.078125 377.703125c-16.394531 0-29.738281-13.34375-29.738281-29.742187 0-16.398438 13.34375-29.738282 29.738281-29.738282 16.402344 0 29.742187 13.339844 29.742187 29.738282 0 16.398437-13.339843 29.742187-29.742187 29.742187zm0-51.480469c-11.984375 0-21.738281 9.75-21.738281 21.738282 0 11.988281 9.753906 21.742187 21.738281 21.742187 11.988281 0 21.742187-9.753906 21.742187-21.742187 0-11.988282-9.753906-21.738282-21.742187-21.738282zm0 0" fill="#3762cc"/></svg>